<svg xmlns="http://www.w3.org/2000/svg" viewBox="0 0 24 24" fill="none" color="#fff">
  <path fill="currentColor" d="M12.998 22.298C13.095 22.122 13.245 21.844 13.332 21.68S13.512 21.342 13.541 21.293C13.597 21.197 13.914 20.614 14.701 19.151C14.975 18.643 15.383 17.887 15.609 17.469C15.836 17.052 16.056 16.643 16.1 16.562C16.284 16.216 16.939 15.009 17.329 14.3C17.427 14.12 17.541 13.912 17.581 13.839C17.621 13.765 17.697 13.624 17.75 13.526C17.804 13.428 17.884 13.281 17.93 13.199C17.975 13.117 18.082 12.923 18.167 12.767S18.463 12.23 18.634 11.919C19.225 10.85 19.206 10.888 19.161 10.86C19.138 10.846 18.966 10.772 18.778 10.696C18.589 10.619 18.295 10.498 18.124 10.427C17.952 10.356 17.798 10.298 17.781 10.299C17.764 10.299 17.561 10.618 17.33 11.006C17.098 11.394 16.712 12.039 16.471 12.44C16.094 13.068 15 14.916 14.285 16.13C13.747 17.044 12.984 18.382 12.81 18.715C12.774 18.784 12.771 18.782 12.684 18.625C12.635 18.537 12.499 18.302 12.382 18.101L12.168 17.735H11.139C10.172 17.735 10.112 17.738 10.13 17.787C10.141 17.815 10.289 18.093 10.458 18.404C10.627 18.715 11.056 19.505 11.412 20.16C12.561 22.276 12.75 22.615 12.785 22.615C12.804 22.616 12.899 22.472 12.998 22.298ZM13.054 17.253C13.235 16.944 13.67 16.201 13.728 16.105C13.76 16.051 13.781 16.001 13.774 15.994C13.75 15.969 8.49 15.92 5.844 15.919C4.4 15.919 3.218 15.908 3.218 15.894S3.295 15.786 3.389 15.653C3.483 15.52 3.681 15.233 3.829 15.015C3.977 14.797 4.399 14.184 4.766 13.652C5.536 12.536 6.25 11.496 7.08 10.281C7.676 9.41 7.797 9.233 9.004 7.476C9.833 6.269 10.284 5.611 11.077 4.448C12.15 2.875 12.355 2.569 12.355 2.542C12.355 2.526 9.756 2.515 6.179 2.515C2.783 2.515 0.004 2.522 0.004 2.531S0.046 2.588 0.097 2.657C0.148 2.726 0.451 3.164 0.771 3.631C1.621 4.873 2.279 5.833 2.534 6.207C2.658 6.388 3 6.887 3.294 7.32L3.83 8.089H5.458L5.423 8.022C5.404 7.985 5.198 7.674 4.965 7.331C4.463 6.589 2.617 3.836 2.586 3.783C2.569 3.754 3.317 3.746 6.286 3.746C8.333 3.746 10.008 3.756 10.008 3.768C10.008 3.781 9.889 3.952 9.745 4.149C9.601 4.345 9.269 4.807 9.007 5.175C8.745 5.544 8.285 6.187 7.985 6.604C7.685 7.021 7.382 7.443 7.312 7.541C7.163 7.75 6.116 9.204 5.545 9.995C5.122 10.581 3.956 12.205 3.077 13.431C2.783 13.84 2.393 14.382 2.21 14.636C1.233 15.985 0.248 17.367 0.248 17.389C0.248 17.398 3.111 17.405 6.61 17.405H12.97L13.061 17.248ZM20.759 17.342C22.357 17.047 23.379 16.165 23.818 14.701C23.971 14.191 24.001 13.975 24.001 13.392C24.001 12.81 23.966 12.59 23.788 12.052C23.463 11.065 22.835 10.274 21.874 9.64C21.495 9.391 20.453 8.883 19.523 8.495C18.541 8.085 18.437 8.039 17.879 7.764C16.609 7.136 16.024 6.51 15.891 5.636C15.803 5.06 15.958 4.426 16.304 3.943C16.52 3.641 16.783 3.426 17.157 3.243C17.803 2.927 18.62 2.851 19.584 3.019C20.014 3.093 20.656 3.284 20.899 3.409L20.979 3.451L20.775 3.95C20.663 4.224 20.517 4.581 20.451 4.744C20.384 4.906 20.333 5.041 20.336 5.043C20.465 5.127 21.611 5.719 21.621 5.708C21.625 5.703 21.719 5.484 21.829 5.222C21.94 4.96 22.087 4.612 22.158 4.448C22.452 3.761 22.857 2.8 22.913 2.656L22.973 2.502L22.699 2.358C21.777 1.874 21.027 1.628 19.999 1.472C19.552 1.404 18.634 1.38 18.198 1.425C16.069 1.641 14.605 2.86 14.301 4.67C14.226 5.116 14.238 5.732 14.329 6.185C14.538 7.22 15.09 8.011 16.085 8.702C16.647 9.092 17.174 9.359 18.539 9.942C20.448 10.758 21.165 11.17 21.645 11.726C21.905 12.027 22.102 12.432 22.185 12.839C22.282 13.31 22.223 14.093 22.061 14.505C21.741 15.316 20.957 15.806 19.795 15.922C19.626 15.939 18.941 15.953 18.273 15.953H17.059L16.918 16.198C16.84 16.333 16.68 16.611 16.561 16.816C16.333 17.212 16.249 17.368 16.249 17.397C16.249 17.407 17.203 17.41 18.369 17.404C20.188 17.395 20.527 17.387 20.757 17.344ZM10.849 15.6C10.849 15.587 10.774 15.456 10.682 15.31C10.59 15.163 10.4 14.856 10.26 14.627C10.12 14.398 9.899 14.036 9.768 13.823C9.448 13.302 8.984 12.544 8.885 12.379C8.841 12.306 8.684 12.052 8.537 11.814C7.956 10.875 7.685 10.445 7.677 10.452C7.673 10.456 7.442 10.8 7.165 11.216L6.659 11.972L6.742 12.109C7.163 12.807 7.615 13.559 7.701 13.705C8.117 14.414 8.834 15.583 8.863 15.602C8.911 15.632 10.848 15.632 10.849 15.6Z"/>
</svg>